<svg width="42" height="42" viewBox="0 0 42 42" fill="none" xmlns="http://www.w3.org/2000/svg">
<path fill-rule="evenodd" clip-rule="evenodd" d="M6.5625 0H35.4375C39.0619 0 42 2.93813 42 6.5625V35.4375C42 39.0619 39.0619 42 35.4375 42H6.5625C2.93813 42 0 39.0619 0 35.4375V6.5625C0 2.93813 2.93813 0 6.5625 0ZM21.9081 15.7597C20.0272 16.542 16.2683 18.1611 10.6311 20.6171C9.71576 20.9812 9.23624 21.3373 9.19259 21.6855C9.11881 22.274 9.85575 22.5057 10.8593 22.8212C10.9958 22.8642 11.1372 22.9086 11.2822 22.9558C12.2695 23.2767 13.5977 23.6522 14.2881 23.6671C14.9144 23.6806 15.6134 23.4224 16.3851 22.8925C21.6521 19.3372 24.3709 17.5401 24.5416 17.5014C24.662 17.474 24.8289 17.4397 24.9419 17.5402C25.055 17.6407 25.0439 17.831 25.0319 17.882C24.9589 18.1933 22.0661 20.8826 20.5691 22.2744C20.1024 22.7083 19.7714 23.016 19.7037 23.0863C19.5521 23.2438 19.3976 23.3927 19.2491 23.5359C18.3319 24.4201 17.6441 25.0832 19.2872 26.166C20.0769 26.6864 20.7087 27.1167 21.3391 27.546C22.0275 28.0148 22.7142 28.4824 23.6026 29.0648C23.8289 29.2131 24.0451 29.3672 24.2557 29.5173C25.0568 30.0885 25.7766 30.6016 26.6659 30.5198C27.1826 30.4723 27.7163 29.9864 27.9874 28.5373C28.628 25.1127 29.8872 17.6926 30.1782 14.635C30.2037 14.3671 30.1716 14.0243 30.1458 13.8738C30.1201 13.7232 30.0662 13.5088 29.8706 13.3501C29.6389 13.1621 29.2813 13.1224 29.1213 13.1251C28.394 13.1381 27.2781 13.5261 21.9081 15.7597Z" fill="white"/>
</svg>
