<svg width="42" height="42" viewBox="0 0 42 42" fill="none" xmlns="http://www.w3.org/2000/svg">
<path fill-rule="evenodd" clip-rule="evenodd" d="M16.5375 28.4812C17.85 29.2688 19.425 29.6625 21 29.6625C25.8562 29.6625 29.6625 25.725 29.6625 21.1312C29.6625 18.7688 28.875 16.6687 27.1688 14.9625C25.4625 13.3875 23.3625 12.4688 21 12.4688C16.275 12.4688 12.3375 16.4062 12.3375 21.1312C12.3375 22.7063 12.7312 24.2812 13.65 25.725L13.9125 26.1188L12.9937 29.2688L16.275 28.35L16.5375 28.4812ZM23.8875 22.3125C24.15 22.3125 25.4625 22.9688 25.725 23.1C25.7659 23.1204 25.8068 23.1377 25.8471 23.1547C26.0661 23.2472 26.2704 23.3334 26.3813 23.8875C26.5125 23.8875 26.5125 24.4125 26.25 25.0687C26.1188 25.5938 25.0688 26.25 24.5438 26.25C24.4548 26.25 24.3696 26.2575 24.2787 26.2656C23.8326 26.305 23.247 26.3568 21.3937 25.5938C19.0936 24.6737 17.4989 22.4436 17.0511 21.8174C16.9879 21.7289 16.9475 21.6725 16.9312 21.6562C16.9089 21.6116 16.8637 21.5402 16.8041 21.4462C16.5138 20.9877 15.8813 19.989 15.8813 18.9C15.8813 17.5875 16.5375 16.9313 16.8 16.6687C17.0625 16.4062 17.325 16.4062 17.4562 16.4062H17.9813C18.1125 16.4062 18.375 16.4062 18.5063 16.8C18.7688 17.325 19.2938 18.6375 19.2938 18.7688C19.2938 18.8125 19.3083 18.8563 19.3229 18.9C19.3521 18.9875 19.3813 19.075 19.2938 19.1625C19.2281 19.2281 19.1953 19.2937 19.1625 19.3594C19.1297 19.425 19.0969 19.4906 19.0312 19.5563L18.6375 19.95C18.5063 20.0813 18.375 20.2125 18.5063 20.475C18.6375 20.7375 19.1625 21.6562 19.95 22.3125C20.8361 23.0878 21.5352 23.3958 21.8897 23.5519C21.9552 23.5808 22.009 23.6045 22.05 23.625C22.3125 23.625 22.4438 23.625 22.575 23.4938C22.6406 23.3625 22.8047 23.1656 22.9688 22.9688C23.1328 22.7719 23.2969 22.575 23.3625 22.4437C23.4937 22.1813 23.625 22.1813 23.8875 22.3125Z" fill="white"/>
<path fill-rule="evenodd" clip-rule="evenodd" d="M0 6.5625C0 2.93813 2.93813 0 6.5625 0H35.4375C39.0619 0 42 2.93813 42 6.5625V35.4375C42 39.0619 39.0619 42 35.4375 42H6.5625C2.93813 42 0 39.0619 0 35.4375V6.5625ZM21 10.5C23.7562 10.5 26.3813 11.55 28.35 13.5188C30.3188 15.4875 31.5 18.1125 31.5 20.8688C31.5 26.6438 26.775 31.3688 21 31.3688C19.2937 31.3688 17.5875 30.8438 16.0125 30.0563L10.5 31.5L11.9438 26.25C11.025 24.675 10.5 22.8375 10.5 21C10.5 15.225 15.225 10.5 21 10.5Z" fill="white"/>
</svg>
