<?xml version="1.0" encoding="UTF-8"?>
<svg id="_Слой_1" data-name="Слой 1" xmlns="http://www.w3.org/2000/svg" viewBox="0 0 96 65.91">
  <defs>
    <style>
      .cls-1 {
        fill: #fff;
        stroke-width: 0px;
      }
    </style>
  </defs>
  <polygon class="cls-1" points="0 9.38 9.38 .05 26.34 .05 26.34 52.72 39.53 52.72 39.53 65.91 0 65.91 0 52.72 13.19 52.72 13.19 13.19 0 13.19 0 9.38"/>
  <polygon class="cls-1" points="82.81 13.19 56.47 13.19 56.47 0 86.67 0 96 9.38 96 30.2 93.24 32.96 96 35.71 96 56.54 86.67 65.91 56.47 65.91 56.47 52.72 82.81 52.72 82.81 39.58 56.47 39.58 56.47 26.38 82.81 26.38 82.81 13.19"/>
</svg>