<?xml version="1.0" encoding="UTF-8"?>
<svg id="_Слой_1" data-name="Слой 1" xmlns="http://www.w3.org/2000/svg" viewBox="0 0 32 21.5">
  <defs>
    <style>
      .cls-1 {
        fill: #fff;
        stroke-width: 0px;
      }
    </style>
  </defs>
  <polygon class="cls-1" points="8.47 1.47 9.94 0 12.6 0 12.6 8.27 14.67 8.27 14.67 10.34 8.47 10.34 8.47 8.27 10.54 8.27 10.54 2.07 8.47 2.07 8.47 1.47"/>
  <polygon class="cls-1" points="21.46 2.07 17.33 2.07 17.33 0 22.07 0 23.53 1.47 23.53 4.74 23.1 5.17 23.53 5.6 23.53 8.87 22.07 10.34 17.33 10.34 17.33 8.27 21.46 8.27 21.46 6.21 17.33 6.21 17.33 4.14 21.46 4.14 21.46 2.07"/>
  <polygon class="cls-1" points="0 21.5 0 13.69 1.3 12.39 9.11 12.39 9.11 14.21 1.82 14.21 1.82 16.04 7.28 16.04 7.28 17.85 1.82 17.85 1.82 21.5 0 21.5"/>
  <path class="cls-1" d="m19.26,12.39h-6.52l-1.3,1.3v6.52l1.3,1.3h6.52l1.3-1.3v-6.52l-1.3-1.3Zm-.53,7.28h-5.46v-5.46h5.46v5.46Z"/>
  <polygon class="cls-1" points="22.89 20.22 26.16 16.95 22.89 13.69 24.19 12.39 27.45 15.66 30.72 12.39 32 13.67 28.73 16.94 32 20.2 30.7 21.5 27.44 18.23 24.17 21.5 22.89 20.22"/>
</svg>